<?xml version="1.0" encoding="UTF-8"?>
<svg id="Capa_1" data-name="Capa 1" xmlns="http://www.w3.org/2000/svg" viewBox="0 0 36 26">
  <defs>
    <style>
      .cls-1 {
        fill: #f96c0e;
      }

      .cls-2 {
        fill: #fff;
      }

      .cls-3 {
        fill: #141414;
      }
    </style>
  </defs>
  <path class="cls-3" d="m34.6,1.01L1.4,24.99c.7.61,1.59,1.01,2.6,1.01h28c2.22,0,4-1.78,4-4V4c0-1.21-.56-2.25-1.4-2.99Z"/>
  <path class="cls-1" d="m32,0H4C1.78,0,0,1.78,0,4v18c0,1.21.56,2.25,1.4,2.99L34.6,1.01c-.7-.61-1.59-1.01-2.6-1.01Z"/>
  <g>
    <path class="cls-2" d="m30.25,15.81c.37.21.96.73,1.37.82.37.08,1.38.15.84-.52-.04-.13-.16-.25-.36-.36-.24-.13-.72.07-.98-.04-.89-.39-1.53-.97-2.5-1.19-.6-.13-.01.9-1.2,1.27-.92.29-1.09-.23-1.74-.24-.19-.14-.38-.28-.57-.41-.32-.4-.66-.78-1.03-1.17,1.07.77,2.9.99,4.12.35.63-.33,1.03-.94,1.26-1.62.21-.62.09-1.43-.22-2.01-.41-.78-1.42-1.31-2.3-1.27-.85.04-1.8.51-1.94,1.43-.12.77.59,1.33,1.26,1.32.4,0,.51-.24.03-.24-.36,0-.79-.3-.87-.66-.21-.93.84-1.36,1.49-1.37.75-.02,1.31.31,1.74.88.32.42.47,1.21.28,1.7-.28.71-.65,1.45-2.03,1.57-1.16.1-2.45-.5-3.34-1.05-.8-.86-2.56-1.32-4.34-.98-1.18-.16-2.77.3-4.25.78-.29-.24-.69-.39-1.12-.39-.54-.51-1.02-.92-1.55-1.26.37-.25.76-.53,1.1-.61.21-.05.3-.1.34-.14.4.67.35.72.54.79.06.19.33.28,1.11.45,1.26.28,2.73.1,4.43-.55.72-.27,1.29-.42,1.63-.42,1.25,0,2.05-.35,2.32-1.02l.14-.34-.38.34-.38.34-1.3-.07c-1.53-.08-1.85-.01-2.79.57-.36.23-.82.47-1.02.54-.5.18-1.55.27-2.14.17-.49-.08-.48-.08.33-.14,1.09-.08,1.78-.34,2.36-.89,1.18-1.12,1.01-1.03,2.24-1.1,1.2-.06,1.48-.19,1.73-.81l.1-.24-.4.22c-.36.2-.54.22-1.79.19-1.59-.03-1.77.03-2.35.83-.35.48-1.15,1.09-1.3.98-.05-.03.03-.15.18-.27.15-.11.39-.45.54-.74.36-.72.58-.94,1.12-1.13l.46-.16h-.4c-1.12,0-2.08.64-2.53,1.7-.31.74-.53.88-1.18.76-.19-.03-.33-.02-.44.05-.09-.12-.22-.28-.38-.46.2-.16.39-.35.28-.43,0-.14.13-.35-.08-.29-.32.04-.56.04-.79.03-.43-.49-.84-.9-.9-.83-.12.15.18.58.18.58.07.1.13.19.19.28-.07.01-.14.02-.22.04-.14.04-.46.11-.55,0-.09-.18-.14-.16-.24-.16-.47.02-.71.06-.95.16v-.02c-.24-.21-.34-.28-.71-.16-.35.11-.95.27-1.37.67-.03.03.03.09.07.09.17,0,.63-.26.79-.3h.02s-.08.03-.12.06c-.68.38-.83.65-1.19,1.13-.33.43.19.07.95-.25.19-.08.5-.29.6-.22-.3.32-.5,1.16-.28,1.54.25.65.46,1.18.69,1.62-.17.3-.15.75.11,1.5-.24.15-.36.22-.49.43-1.12-.08-3.23.14-4.05.09-.81-.05-1.18.93-2.39,1.29-.68.2-.26.69.3.52.12-.05.24-.02.4-.21.21-.26,1.16-.89,1.52-.94h0c1.18-.03,2.72.36,3.94.47-1.06.08-2.25.12-3.42.33-.2,0-.4-.06-.74.3h0c-.78.82-.76,1.23-1.43,1.68-.6.41-.07.76.41.44.11-.07.23-.07.34-.29.52-.79.7-1.32,1.25-1.46,1.48-.39,3.5.33,4.77.21.45-.04.71-.03.98-.08,2.68,1.13,4.59-.5,6.43-2.84.41-.11.58-.45,1-.42.06.21.22.66.24.62.16-.02.28-.05.39-.08,1,.95,2.38,1.73,3.63,2.03.51.31,1.04.52,1.57.51,1.92.06,1.72.06,3.55-.37.47-.11.96.01,1.46.6.28.32.66,1.01,1.02,1.24.32.2,1.25.61.96-.21,0-.13-.07-.29-.22-.45-.18-.21-.7-.18-.91-.36-.71-.66-1.12-1.43-1.96-1.96-.52-.33-.31.84-1.55.8-.36-.01-.62-.08-.82-.18.58-.18.77-.3,1.84-.98.41-.26.91-.31,1.57.07v-.02Z"/>
    <path class="cls-2" d="m21.11,8.12c.14-.04.36-.06.47-.06s.37-.11.56-.25c.41-.29.47-.8.13-1.14-.31-.32-.51-.28-.34.06.18.37-.02.74-.62,1.15-.29.19-.36.29-.2.25h0Z"/>
  </g>
</svg>