<svg xmlns="http://www.w3.org/2000/svg" xml:space="preserve" width="4608" height="3072" viewBox="0 0 1219.2 812.8"><path d="M 1219.2,812.8 V 0 H 0 v 812.8 z" style="fill:#904020;fill-opacity:1;fill-rule:evenodd;stroke:none;stroke-width:8.46667;stroke-linecap:round;stroke-linejoin:round"/><path d="m 609.6,101.6 c -65.46375,0 -118.53334,53.06958 -118.53334,118.53333 v 16.93334 c 0,33.17542 13.64542,63.15144 35.61023,84.66666 -21.9648,21.51523 -35.61023,51.49123 -35.61023,84.66667 0,65.46373 53.06959,118.53333 118.53334,118.53333 28.05589,0 50.8,22.74411 50.8,50.8 v 16.93334 c 0,28.0559 -22.74411,50.8 -50.8,50.8 -28.0559,0 -50.8,-22.7441 -50.8,-50.8 h -67.73334 c 0,65.46375 53.06959,118.53333 118.53334,118.53333 65.46374,0 118.53333,-53.06958 118.53333,-118.53333 v -16.93334 c 0,-33.17542 -13.64542,-63.15144 -35.61023,-84.66666 21.9648,-21.51523 35.61023,-51.49122 35.61023,-84.66667 0,-65.46373 -53.06959,-118.53333 -118.53333,-118.53333 -28.05589,0 -50.8,-22.74412 -50.8,-50.8 v -16.93334 c 0,-28.0559 22.74411,-50.8 50.8,-50.8 28.05589,0 50.8,22.7441 50.8,50.8 h 67.73333 C 728.13333,154.66958 675.06374,101.6 609.6,101.6 Z m 0,254 c 28.05589,0 50.8,22.74412 50.8,50.8 0,28.05589 -22.74411,50.8 -50.8,50.8 -28.0559,0 -50.8,-22.74411 -50.8,-50.8 0,-28.05589 22.7441,-50.8 50.8,-50.8 z" style="fill:#ffd000;fill-opacity:1;stroke:none;stroke-width:67.7333;stroke-linecap:butt;stroke-linejoin:miter;stroke-miterlimit:128;stroke-dasharray:none;stroke-opacity:1"/></svg>