<svg xmlns="http://www.w3.org/2000/svg" width="1280" height="853" viewBox="0 0 338.667 225.69"><path d="M-4.276-4.276h347.985v231.99H-4.276z" style="fill:#9100c0;fill-opacity:1;stroke-width:2.265"/><g transform="translate(-10.445 -9.958) scale(1.09922)"><path fill="#c36" d="m42 62 1 7 1 9v13l-1 9-1 5-1 3-3 2h-5l-4-1-4-2-4-5-4-5-3-6-3-8-2-7-1-5-1-8-1-5 1-4 1-5 4-6 5-3 5-3 4-2h8l3 3 2 5 1 4 1 7zM85 8l2 3 1 4 1 8-1 8-1 8-1 9-2 9-3 12-3 10-2 4-5 6-5 2-4-2-4-3-3-4-2-5-2-6-2-8-1-7-1-11-1-10 2-7 2-4 3-4 3-4 3-2 5-3 3-2 3-1 5-2 5-1 3 1zm45 56-2 7-6 9-5 4-4 1h-3l-4-1-5-3-3-4-3-6-1-5-1-6v-9l1-13 1-10 1-8 2-7 2-6 2-3 3-1 4-1 6 2 6 2 6 3 4 3 3 4 2 4 1 7-1 9-1 8-2 11zm41-1-3 7-6 14-2 3-4 3h-5l-4-1-3-3-2-2-3-6-1-5v-7l1-5 1-5 1-6 1-6 1-5 1-4 1-4 1-4 2-4 2-3 2-1 3 1 3 1 3 3 3 3 3 4 4 6 2 7v9l-1 5zm-65 32 4 1 6 1h13l9-1 6-1 7-1h14l5 1 5 2 4 3 3 3 2 4 2 5 1 4v8l-1 5-1 5-3 7-4 8-9 12-6 6-6 5-6 5-4 3-5 3-8 5-7 4-7 3H64l-8-1-7-2-6-2-6-2-7-4-4-3-3-3-3-4-3-4-1-5-1-5-1-8v-6l1-4 1-4 2-5 3-5 4-4 4-3 4-2 4-1 5-1 5-1h8l8 1 5 1 8 3 5 2 6 3 5 3 5 2 6 2 5 1 6 1h6l3-1 4-2 2-2 2-2v-3l-3-1h-3l-3 1-3 1-4 1-5 1-5-1-5-1-6-2-4-3-3-3-3-4-2-4-1-5v-6l1-5 1-3 2-3 3-3 3-1h3l3 3 2 3 4 3z" style="fill:#fff;fill-opacity:1;stroke:#fff;stroke-opacity:1" transform="translate(139.03 62.156) scale(.25812)"/><circle cx="163.551" cy="87.323" r="39.348" fill="none" stroke="#c36" stroke-width="12.591" style="stroke:#fff;stroke-opacity:1"/><path stroke="#c36" stroke-width="12.591" d="M163.551 103.062v78.695m-23.609-23.608h47.217" style="stroke:#fff;stroke-opacity:1"/></g></svg>