<svg xmlns="http://www.w3.org/2000/svg" width="1000" height="1128.589"><path d="M497.74 1124.271c-21.917-23.46-75.155-37.003-161.586-41.102-161.626-7.667-220.312-19.37-271.19-54.082-19.037-12.987-39.146-39.922-48.111-64.44l-4.101-18.987-6.27-472.505L5.787 2.15l499.914.25 496.525.432-2.133 472.912c-.867 40.822 1.564 87.148 2.305 132.337.742 45.188-.207 89.238.166 131.507.374 42.269 2.57 87.88.6 129.319-1.97 41.437-4.606 78.2-10.895 117.771-12.19 30.055-43.613 54.445-75.282 66.358-61.413 23.102-99.222 28.454-214.46 32.72-93.736 3.47-165.903 13.935-188.866 38.515-3.451 3.695-7.034 6.718-7.961 6.718-.927 0-4.51-3.023-7.962-6.718z" style="fill:#fff;stroke-width:2.58851" transform="translate(-2.788 -2.4)"/><g style="display:inline;opacity:1"><path d="M269.657 589.537s-15.642-11.172-24.587-14.327c-18.891-6.663-39.518-6.695-59.414-9.015-21.344-2.488-42.963-2.323-64.252-5.25-14.291-1.966-28.662-4.12-42.485-8.248-11.933-3.565-24.68-6.598-34.574-14.164-8.882-6.792-15.983-16.355-20.403-26.626-5.316-12.35-6.306-26.382-6.386-39.827L16.01 210.393c25.278 23.094 47.261 51.438 67.758 78.592 17.655 20.996 38.218 38.68 61.898 52.735 25.046 13.66 43.124 36.155 62.934 56.101 18.096 18.641 32.287 43.035 49.617 60.904 14.526 20.295 34.353 34.506 55.149 47.733 23.751 15.517 45.83 37.209 63.532 59.497-17.51.882-38.827 1.684-57.993 4.642-10.888 1.68-22.107 3.022-32.209 7.418-6.287 2.736-17.038 11.522-17.038 11.522zm164.03-30.829c-16.153-22.262-35.9-45.908-57.376-64.676-17.761-20.96-46.4-30.42-65.906-50.274-23.787-19.967-42.338-44.501-60.58-69.29-16.648-23.202-38.459-42.79-59.784-61.973-23.467-14.631-47.566-29.51-65.864-50.383-35-31.788-52.802-73.297-85.28-99.167-5.649-5.597-19.441-12.46-22.796-18.13l-.009-45.918c51.95 20.386 93.425 77.143 122.278 115.374 14.093 18.538 30.711 34.02 49.242 48.318 22.945 13.817 44.902 29.318 63.382 49.42 21.805 19.695 38.985 43.327 55.732 66.85 21.147 26.235 46.08 50.079 75.77 65.841 21.846 14.875 38.816 34.69 57.19 53.325 4.524 7.98 45.083 48.364 45.083 48.364s-5.453 3.622-15.144 6.992c-9.69 3.37-23.618 6.49-32.316 7.993-3.562-2.746-3.622-2.666-3.622-2.666zm11.63-184.788c-22.109-17.09-48.522-28.85-66.724-51.04-29.473-28.845-48.678-65.995-79.539-93.291-23.589-28.737-60.15-41.051-85.494-67.77-16.4-17.89-33.35-36.959-47.72-57.033-25.568-33.41-57.273-65.849-92.447-88.35l63.78.194c28.136 27.305 51.952 60.438 75.77 91.293 13.582 17.213 29.49 31.325 48.55 42.93 29.026 17.355 53.473 40.154 75.59 65.336 23.169 28.209 43.922 59.236 70.821 83.797 17.097 14.946 38.151 26.515 56.79 40.126 20.232 18.65 39.703 38.613 57.175 59.883l.17 56.82c-24.93-30.286-50.969-59.916-76.722-82.895Zm32.016-83.949c-30.773-19.47-60.041-42.423-80.919-72.86-31.45-42.237-74.269-81.552-113.085-109.129-38.815-27.576-65.386-55.036-79.127-91.541l317.26.44.543 312.787c-13.474-15.627-30.206-29.486-44.672-39.697Z" style="fill:#0053a8;fill-opacity:1;stroke-width:1.31992" transform="translate(-28.57 -32.847) scale(1.9714)"/><path d="M162.161 475.69c2.784-4.14 2.546-13.2-3.018-16.4-4.257-2.128-9.065-1.295-11.311.538-3.617 2.187-7.1 9.182-7.1 16.266l12.488-.018-.003 13.944-25.917-.013c.34 7.172 4.25 12.916 11.528 16.115-.937 3.023-5.326 9.183-11.353 8.766-1.19 6.519-2.32 10.178-7.74 16.101-5.422-5.921-6.553-9.582-7.743-16.101-6.027.417-10.416-5.743-11.353-8.766 7.278-3.199 11.188-8.943 11.528-16.115l-25.918.013v-13.944l12.483.018c0-7.084-3.478-14.079-7.097-16.266-2.247-1.831-7.053-2.664-11.308-.537-5.568 3.199-5.807 12.262-3.024 16.4-26.294-4.883-23.686-30.276-14.728-39.495 7.24-7.448 15.132-8.611 21.218-6.263 13.83 4.958 23.133 21.481 23.585 46.16h7.232c0-22.434-3.903-29.587-14.075-57.766-5.123-13.316-2.045-29.78 7.113-44.94 3.28-5.432 7.378-10.337 12.087-15.59 4.706 5.253 8.803 10.158 12.084 15.59 9.158 15.16 12.236 31.624 7.116 44.94-10.177 28.179-14.08 35.33-14.08 57.767h7.232c.452-24.68 9.758-41.203 23.585-46.161 6.086-2.347 13.984-1.185 21.22 6.263 8.956 9.219 11.564 34.612-14.73 39.494z" style="fill:#fff;fill-opacity:1;stroke-width:.579174" transform="translate(-28.57 -32.847) scale(1.9714)"/><path d="M484.761 153.468c2.772-4.121 2.535-13.145-3.006-16.33-4.239-2.12-9.026-1.29-11.263.535-3.601 2.178-7.07 9.144-7.07 16.197l12.435-.015-.003 13.884-25.807-.014c.338 7.142 4.232 12.863 11.479 16.048-.933 3.01-5.303 9.144-11.305 8.728-1.185 6.492-2.31 10.136-7.707 16.034-5.4-5.897-6.526-9.542-7.71-16.034-6.002.416-10.372-5.719-11.306-8.728 7.247-3.185 11.141-8.906 11.48-16.048l-25.81.014v-13.884l12.432.015c0-7.053-3.463-14.019-7.068-16.197-2.237-1.823-7.022-2.653-11.26-.535-5.544 3.186-5.782 12.21-3.01 16.33-26.184-4.861-23.587-30.147-14.667-39.327 7.209-7.416 15.068-8.575 21.128-6.237 13.773 4.938 23.036 21.39 23.486 45.966h7.202c0-22.34-3.887-29.463-14.016-57.522-5.101-13.26-2.037-29.655 7.083-44.75 3.266-5.41 7.347-10.294 12.036-15.525 4.686 5.23 8.766 10.115 12.033 15.525 9.12 15.095 12.184 31.49 7.086 44.75-10.134 28.06-14.021 35.18-14.021 57.522h7.202c.45-24.575 9.716-41.028 23.486-45.966 6.06-2.336 13.924-1.18 21.13 6.237 8.917 9.18 11.515 34.466-14.668 39.327z" style="fill:#fff;fill-opacity:1;stroke-width:.576727" transform="translate(-28.57 -32.847) scale(1.9714)"/></g></svg>