<svg xmlns="http://www.w3.org/2000/svg" width="1280" height="853" viewBox="0 0 338.667 225.69"><defs><filter id="a" width="1" height="1" x="0" y="0" style="color-interpolation-filters:sRGB"><feGaussianBlur stdDeviation=".006"/></filter></defs><g style="display:inline;filter:url(#a)"><path d="M-21.382-14.433H376.85v264.062H-21.382z" style="fill:#006aa7;stroke-width:.264583;fill-opacity:1"/></g><path d="M143.298 28.154c12.91.015 19.829 3.546 27.507 14.033 15.92 21.741 20.322 24.717 36.554 24.717 13.817 0 24.43-3.02 55.357-15.76 3.56-1.466 9.07 28.556 12.073 65.777l1.768 21.882-9.09 3.986c-24.816 10.878-46.435 14.953-58.968 11.115-7.326-2.244-13.073-8.052-23.278-23.519-8.745-13.254-19.63-17.355-37.83-14.248-11.734 2.003-34.113 9.49-34.47 11.532-.132.754 5.274 25.934 12.012 55.956l11.15 49.69a115.395 137.438 47.5 0 1-15.165-1.502c-1.493-10.175-7.22-37.19-19.22-91.134-12.017-54.013-20.9-96.962-20.403-98.656 1.417-4.843 5.087-6.153 8.654-3.09l3.02 2.594 8.892-3.522c15.71-6.222 31.033-9.865 41.437-9.851zM96.626 51.882a.493.493 0 0 0-.333.117c-.326.29 2.672 15.132 6.665 32.983 4.856 21.713 7.663 31.732 8.477 30.276.669-1.197 1.805-7.08 2.525-13.073 1.611-13.406-.131-25.202-5.247-35.515-3.263-6.578-10.09-14.811-12.087-14.788Z" style="fill:gold;fill-opacity:1;stroke-width:6.10742"/></svg>
