<?xml version="1.0" encoding="UTF-8"?>
<svg id="Layer_1" data-name="Layer 1" xmlns="http://www.w3.org/2000/svg" xmlns:xlink="http://www.w3.org/1999/xlink" viewBox="0 0 750 500">
  <defs>
    <style>
      .cls-1 {
        fill: url(#linear-gradient-3);
      }

      .cls-2 {
        fill: url(#linear-gradient-2);
      }

      .cls-3 {
        fill: url(#linear-gradient);
      }

      .cls-4 {
        fill: #fac421;
      }
    </style>
    <linearGradient id="linear-gradient" x1="375" y1="0" x2="375" y2="500" gradientUnits="userSpaceOnUse">
      <stop offset="0" stop-color="#002395"/>
      <stop offset=".58" stop-color="#002395"/>
      <stop offset="1" stop-color="#882e2f"/>
    </linearGradient>
    <linearGradient id="linear-gradient-2" x1="378.9" y1="165.99" x2="378.9" y2="100.79" gradientUnits="userSpaceOnUse">
      <stop offset="0" stop-color="#fac421"/>
      <stop offset="1" stop-color="#ef4444"/>
    </linearGradient>
    <linearGradient id="linear-gradient-3" x1="374.95" y1="238.07" x2="374.95" y2="399.21" gradientUnits="userSpaceOnUse">
      <stop offset="0" stop-color="#fac421"/>
      <stop offset="1" stop-color="#a29327"/>
    </linearGradient>
  </defs>
  <path class="cls-3" d="M0,0h750v500H0V0Z"/>
  <g>
    <g>
      <path class="cls-2" d="M365.26,165.97c-6.39-8.98-10.86-23.32-8.95-32.69,1.9-9.36,8.39-18.58,7.49-25.67,3.38,7.98,6.56,11.05,5.57,16.93,5.08-15.14,16.75-22.97,32.57-23.74-28.45,21.62,8.69,38.24-15.87,65.2l-20.81-.02Z"/>
      <path class="cls-4" d="M392.46,166c22.6-27.26-6.16-41.24,20.05-53.45.96,8.06-5.46,8.05-2.63,17.92.48,4.27-.11,7.76-1.49,10.73,2.67-3.27,7.85-9.43,11.14-11.83-7.79,11.74.58,22.01-18.22,36.63h-9.24M388.64,224.83c1.01-25.56,6.48-33.35,16.85-44.04-20.12-.05-42.61-.05-60.91-.06,10.33,10.71,15.79,18.49,16.74,44.06,9.11,0,18.21.02,27.32.05h0ZM410.36,176.21l-70.75-.07v-6.72s70.77.07,70.77.07l-.02,6.72ZM393.14,235.89l-37.32-.04v-8.35s37.34.05,37.34.05l-.02,8.34Z"/>
      <path class="cls-1" d="M368.18,342.02h13.28s1.38-29.81,1.38-29.81l-15.98-.02,1.31,29.83ZM374.76,399.21c-3.52-3.29-4.46-13.87-4.46-13.87l-2.11-43.31h13.28s-2.18,43.31-2.18,43.31c0,0-1,10.61-4.51,13.87h-.02ZM382.85,312.21l-15.98-.02-4.22-74.12c8.2.01,16.4.02,24.59.05l-4.4,74.08Z"/>
    </g>
    <path class="cls-4" d="M357.93,166.01h-9.24c-18.8-14.62-10.43-24.89-18.22-36.63,3.29,2.4,8.48,8.56,11.14,11.83-1.38-2.97-1.97-6.46-1.49-10.73,2.83-9.87-3.59-9.86-2.63-17.92,26.21,12.22-2.55,26.19,20.05,53.45M361.36,224.83c9.11-.02,18.21-.04,27.32-.05.95-25.56,6.42-33.35,16.74-44.06-18.3.01-40.78.02-60.91.06,10.37,10.69,15.84,18.47,16.85,44.04h0ZM339.61,169.49l70.76-.07v6.72s-70.74.07-70.74.07l-.02-6.72ZM356.85,227.56l37.33-.05v8.35s-37.31.04-37.31.04l-.02-8.34Z"/>
  </g>
</svg>