<?xml version="1.0" encoding="utf-8"?>
<!-- Generator: Adobe Illustrator 25.0.0, SVG Export Plug-In . SVG Version: 6.00 Build 0)  -->
<svg version="1.1" id="Layer_1" xmlns="http://www.w3.org/2000/svg" xmlns:xlink="http://www.w3.org/1999/xlink" x="0px" y="0px"
	 viewBox="0 0 886 864" style="enable-background:new 0 0 886 864;" xml:space="preserve">
<style type="text/css">
	.st0{fill:#C11F20;}
</style>
<g>
	<g>
		<path class="st0" d="M887,89c-3.6,13.8-14.2,21.7-24.9,29.6c-8.5,6.2-16.2,13-21.5,22.5c-2.7,4.7-7.8,8.9-12.8,11.4
			c-21.4,10.6-43.2,20.5-66.4,26.8c-6.8,1.9-13.4,1.6-19.6-4.5c3.4-1.5,6.3-2.6,9-3.9c5.2-2.5,10.6-4.9,15.7-7.6
			c5.2-2.8,5.3-3.8,1.4-8.1c-2.8-3.2-5.6-6.4-8.7-9.9c12.2-5.6,23.9-10.6,35.3-16.1c30.2-14.7,58.3-32.7,83.7-54.7
			c3-2.6,4.8-2.2,6.7,0.9c0.6,1,1.3,1.8,2,2.7C887,81.7,887,85.3,887,89z"/>
		<path class="st0" d="M1,135c2.4-3.1,5.6-2.7,7.8-0.6C19,144,32,148,44.7,152.9c10.6,4.1,20.2,10.9,30.9,15.1
			c14.6,5.7,29.8,10.1,44.7,15.1c3.7,1.2,7.5,2.5,11.9,3.9c-2.9,4-5.4,7.4-8.7,11.9c7.1,4,13.8,7.8,21.3,12.1
			c-8.3,2.7-15.5,1.4-22.6,0c-18.7-3.8-37.8-5.9-55.5-13.5c-3.9-1.7-7.2-4.9-10.5-7.7c-2.2-1.8-3.7-4.4-5.9-6
			c-11-7.8-22.3-15-33.1-23.1c-4.8-3.6-8.5-8.7-12.7-13.2c-1.3-1.4-2.3-3.1-3.5-4.6C1,140.3,1,137.7,1,135z"/>
		<path class="st0" d="M244,865c-6.5-3.1-9.9-8.5-12.7-14.9c-2.6-6-6.4-11.4-10.8-16.8c0,10,0,20,0,29.8c-0.8,0.5-1.1,0.8-1.4,0.8
			c-16.3,0.1-14.3,2.1-14.4-13.6c0-13.3,0-26.7,0-40c0-3.2-1.2-7,2.6-8.9c3.4-1.8,12.2,0,14.4,3.1c3,4.2,5.5,8.7,8.1,13.1
			c2.5,4.3,4.9,8.7,7.4,13c0.1,0.2,0.6,0.1,1.7,0.3c0-7.3,0-14.5,0-21.7c0-7.9,0-7.9,7.8-7.8c2.5,0.1,5,0,8.4,0c0,2.4,0,4.8,0,7.2
			c0,15.8-0.2,31.7,0.1,47.5c0.1,4.5-0.7,7.6-5.2,9C248,865,246,865,244,865z"/>
		<path class="st0" d="M438,865c-0.8-1.5-2.2-3-2.2-4.5c-0.1-19.3,0-38.6,0.1-57.9c0-0.5,0.2-0.9,0.6-2.3c11.8,0.7,23.7,1,35.5,2.3
			c7.4,0.8,13.5,7.5,13.9,15c0.6,10.1,0.7,20.2,0,30.3c-0.5,7.6-6.1,11.9-13.1,13.9c-4.5,1.3-9.1,2.1-13.7,3.2
			C452,865,445,865,438,865z M451.7,851.3c4.3-0.2,7.8-0.4,11.2-0.5c4.9-0.2,7.7-2.8,7.9-7.8c0.2-6,0.6-12,0.3-18
			c-0.4-9.6-8.5-14.7-17.5-11.1c-0.9,0.4-1.8,2-1.8,3C451.7,828.3,451.7,839.5,451.7,851.3z"/>
		<path class="st0" d="M516,865c-2.4-0.7-4.8-1.5-7.3-2.1c-10.2-2.5-16.2-9.2-16.7-19.6c-0.3-7.4-0.4-15,0.1-22.4
			c0.7-10,7.6-17.4,17.6-18.7c5.5-0.7,11.3-0.8,16.8-0.2c10,1,17.3,6.8,18.6,16.5c1.2,9.4,1,19.2,0,28.7c-1,8.4-7.1,13.5-15.4,15.8
			c-2,0.5-3.9,1.4-5.8,2.1C521.3,865,518.7,865,516,865z M530,838.6c0-5.6,0.2-11.3-0.1-16.9c-0.2-4.3-2.6-7.3-7.1-7.6
			c-5.1-0.4-10.4-1.1-14.2,3.7c-0.5,0.6-0.7,1.5-0.8,2.3c-0.1,8-0.2,15.9-0.1,23.9c0,4.2,2.7,6.2,6.5,6.9
			C525.5,853,529.5,849.9,530,838.6z"/>
		<path class="st0" d="M398,865c-1.1-0.6-2.2-1.3-3.3-1.7c-12.4-3.9-17.9-11.3-17.9-24.3c0-5.2,0.1-10.3,0.2-15.5
			c0.2-10.9,7.1-19.4,17.8-21.6c9.6-2,18.8-1.7,27.4,3.7c4.7,2.9,7.8,7.1,8.3,12.4c0.7,8.2,0.9,16.6,0.6,24.9
			c-0.4,11.3-7,17.8-17.7,20.5c-1.2,0.3-2.2,1-3.4,1.5C406,865,402,865,398,865z M415.8,834.5c0.1,0,0.1,0,0.2,0
			c-0.3-4.6-0.5-9.3-1-13.9c-0.4-3.7-3-6.2-6.6-6.5c-3.4-0.3-7.1-0.2-10.3,0.9c-2.2,0.8-4.9,3.7-5,5.8c-0.6,7.6-0.5,15.2-0.2,22.8
			c0.1,2,1.8,5.4,3.1,5.7c4.9,0.9,10.1,1.5,14.9,0.6c4.6-0.8,4.2-5.7,4.3-9.5C415.4,838.4,415.6,836.5,415.8,834.5z"/>
		<path class="st0" d="M478,1c1.2,0.8,2.3,1.7,3.5,2.5c0,0.4,0.1,0.8,0,1c-5.6,8-5.7,8.1,3.8,9.1c3.2,0.3,4.5,1.7,3.7,4.9
			c-0.6,2.4-1.1,4.8-1.7,7.4c-4.3-2.4-8.2-4.5-13.2-7.2c-0.2,3.5-0.3,5.5-0.5,8.4c-3.5-0.7-6.9-1.5-8.9-1.9
			c-1.1-3.3-1.2-6.4-2.7-7.3c-2-1.2-5-0.7-8.5-1c1.3-3.3,1.6-7.1,3.5-8.2c2.1-1.2,5.7,0.1,9.3,0.4c-0.1-2.8-0.3-5.4-0.4-8
			C470,1,474,1,478,1z"/>
		<path class="st0" d="M417.5,86.3c-2.1-9-4.1-17-5.8-25.1c-2.7-12.3,5.7-22.8,18.3-22.8c6.5,0,13,0.3,19.5,0.4c3.3,0,6-0.8,7.6-4.3
			c2.1-4.6,6.4-4.9,10.7-3.9c5.4,1.3,9.2,5.1,8.5,9.5c-0.8,5.4,1.9,6.7,6.4,7.2c7.6,0.9,15.1,2.3,21.3,7.5
			c9.1,7.6,10.8,17.8,3.9,27.4c-5.4,7.4-11.3,14.3-17.5,22c6.6,0,12.9,0,19.2,0c-7.4,8.9-17.8,5.5-27.2,8.3
			c5.9,14.6,13.9,28.8,12.8,45.8c-1.1,0.1-2.5,0.2-4.4,0.3c0.3,2.3-0.2,5,0.9,6.7c6.8,10.8,4.5,22.5,3.8,34.1
			c-0.5,8.9-1.9,17.8,2.2,26.5c2.1,4.4,4.7,6.9,9.8,7.8c20.7,3.4,41.3,5.3,62,0.6c9.7-2.2,17.5-6.9,23-15.4c2.1-3.3,2.4-6.5,0.5-9.9
			c-2.4-4.2-4.8-8.3-7.2-12.6c-4.4-8-4-15.6,1.6-22.8c4.9-6.3,10.1-12.4,14.9-18.8c5.3-6.9,12.1-11.4,20.4-13.7
			c16.8-4.6,33.7-9,50.6-13.3c1.6-0.4,3.7,0.6,5.5,0.9c-0.9,1.7-1.3,4-2.7,4.9c-5.5,3.7-11.4,6.9-17.1,10.3
			c-2.1,1.2-4.1,2.6-6.1,4.8c13.9-2.2,24.9,1.8,34.3,14.1c-6.2,2.2-11.5,4.6-16.9,5.9c-5.4,1.3-11.1,1.7-17.2,3.6
			c2.1,1.6,4.2,3.3,6.5,4.7c2.5,1.6,5.4,2.7,7.8,4.4c6.9,4.6,6.4,11.3-1,15c-0.8,0.4-1.7,0.8-2.7,1.4c3.5,1.3,13.5-1.8,14.5-4.8
			c0.5-1.5-0.1-4.1-1.1-5.3c-4-4.8-8.5-9.2-12.6-13.6c8.8-3.1,17.6-6.1,26.4-9.4c4.5-1.7,4.6-3.2,0.7-5.9c-7-4.8-14-9.5-20.8-14
			c5-5.7,10.2-11.7,15.4-17.6c1.1-1.2,2.6-2.3,4.1-2.7c18.6-4.9,34.4-14.7,48.9-27c1.5-1.3,4.8-2.8,5.8-2.1c1.9,1.3,3.5,4,3.8,6.3
			c1.1,9.9-0.8,18.9-9.6,25.2c-2,1.4-3.5,3.5-5.2,5.4c-3.5,3.9-3.2,5.4,1.9,6.6c9.8,2.2,17.1,7.8,23,15.7c3.1,4.2,3.1,5.9-1.7,8.1
			c-5.9,2.6-12.2,4.2-18.3,6.3c-4,1.3-7.9,2.7-12.1,4.9c10.4,2.9,15.4,10.4,19.2,19.2c1.7,3.9,0.9,6.3-2.8,8.7
			c-9.4,5.9-19.3,8.8-30.4,6.8c-2.7-0.5-5.6-0.1-9-0.1c0.6,1.2,0.8,2.3,1.4,3.1c5.6,7.5,6,16.4,7,25.1c0.2,1.6-2.4,4.3-4.4,5.4
			c-9.1,5-18.6,3.7-28.1,1.4c-2.5-0.6-5-1-9.1-1.8c2,3.1,3.1,4.9,4.3,6.6c3.8,5.5,5.2,11.5,3,18c-3.3,9.6-10.3,13.5-20.8,11.5
			c-5.4-1-10.7-2.4-16.8-3.8c-0.3,3.2-0.5,6.2-0.7,9.2c-0.1,2,0,4-0.4,6c-2.4,11.8-9.4,14.4-19,7.1c-5.3-4-10.5-8.1-16.1-12.4
			c-1.3,2.9-2.2,5.2-3.4,7.3c-1.2,2.4-2.5,4.7-4.1,6.9c-9.3,12.8-18.3,13.6-29.3,2.2c-2.1-2.2-2.8-5.9-4.2-8.8
			c-0.7-1.5-1.6-2.9-2.4-4.4c-0.6,0.2-1.1,0.4-1.7,0.5c-0.2,1.7-0.3,3.4-0.6,5.2c-0.3,2.3-0.4,4.7-1,6.9
			c-3.5,12.8-12.9,15.2-22.1,5.8c-4.4-4.5-8-9.4-7.9-16.1c0-0.5,0-1.1-0.2-1.5c-8-14.1-9.4-31.2-20.3-44.1
			c-6-7.1-11.1-14.8-16.7-22.2c-0.1-0.2-0.6-0.2-2.1-0.5c1,3.2,1.5,6,2.7,8.4c4.6,9.4,9.6,18.6,14.3,28c10.2,20.6,13.7,42.6,15,65.5
			c1.8,30.9-10.8,56.9-23.2,83.4c-6.2,13.2-13.6,26-18.8,39.5c-6.5,16.7-6.8,34.5-4.6,52.2c0.2,1.9,0.8,4.2,2,5.6
			c7.5,8.8,15.1,17.5,23,26c2.3,2.5,5.6,4.1,5,8.6c-15-1-27.9-5.6-36.8-19c-0.4,0.5-0.9,1-1.3,1.6c1.8,3.2,2.9,7,5.4,9.5
			c12.1,12.1,15.8,27.3,17.6,43.5c0.7,6.3,1.5,12.6,3.1,18.7c1.1,4.2,3.6,8.1,5.5,12.1c0.6,1.3,1.3,2.5,2.1,3.8
			c-8.5,2.4-20.6-2.6-26.7-10.6c-4.6-6-6.5-13-7-20.4c-0.7-9.8-1.1-19.7-5.8-28.6c-0.9-1.7-2.1-3.1-3.9-4.3c1.4,9,2.6,18,4.2,26.9
			c1.5,8,3.4,15.8,5.2,23.7c1.1,4.8-0.3,9.2-3.5,12.5c-7.1,7.3-14.5,14.2-22,21c-1.1,1-4.7,0.9-6-0.1c-9.9-8.4-16.4-19.2-19.3-31.9
			c-0.6-2.5,1.2-5.7,2.1-8.5c5.4-16.1,10.9-32.3,16.3-48.4c-0.7-0.3-1.5-0.7-2.2-1c-2,3.9-4.6,7.7-6,11.8c-2.7,7.7-4.7,15.6-7,23.4
			c-0.9,2.9-2.1,5.6-2.9,8.5c-3.6,12.5-14.5,15.7-25.7,20.8c1.4-7.3,2.6-13.4,3.9-19.5c2.1-10.1,4.2-20.2,6.5-30.2
			c2.1-9.3,6.4-17.4,13.7-23.8c3-2.7,5.6-5.7,3.1-11.5c-9.7,12.6-20.4,22.7-37.5,20.9c0.6-3.9,3.2-7.1,7-9.4
			c19.8-11.9,26-30.3,24.4-52c-0.8-11.9-2.4-23.8-4.4-35.6c-0.9-5.3-2.7-10.8-5.4-15.5c-10.7-18.7-22-37.2-33-55.8
			c-1.6-2.7-3.6-5.5-4-8.5c-3.6-22.7-6.9-45.5,0.6-68.2c2.6-7.7,5.7-15.2,8.7-22.8c0.6-1.4,2-3.5,3.1-3.6c4.8-0.2,5.5-4.1,7.2-7.1
			c2.9-5.1,6.6-9.8,8.4-15.3c3.1-9.4,13.2-13.3,16.3-22.4c2.9-8.6,6.2-17.1,8.9-25.8c0.7-2.4,0.1-5.2,0.1-8.7
			c-6.5,3.9-3.1,10.5-6.8,14.9c-0.2-4.2-1-8.5-0.4-12.6c1.2-8.2,3.5-16.2,4.8-24.4c1.9-11.9-1.4-22.4-9.8-31.2
			c-8-8.4-17.5-14.2-29.1-16.3c-1-0.2-1.9-0.6-2.9-1c5.7-3.4,15.5-3.4,24.2,0.3c4.1,1.8,7.7,4.6,11.9,6.3c2.3,0.9,5.2,0.5,7.8,0.7
			c-0.3-2.7,0.2-5.9-1.1-7.9c-2.4-3.5-5.9-6.2-9-9.1c-3.1-3-6.3-5.9-9.9-9.3c5-1.6,8.5-0.6,11.2,2.8c4.9,6.2,11.2,7.5,18.8,6
			c4.6-0.9,9.4-0.7,14.9-1.1c-3.4-1.9-6.6-3.6-9.8-5.3c-9.3-4.7-18.5-9.8-29.5-9.6c-3,0-5.5,0.1-6.5,3.8c-0.3,1.1-2.7,1.6-4.6,2.6
			c4.9,8.5,16.8,11.1,20.4,22.2c-4.7-1.8-8.8-3.6-13-4.7c-6.9-1.8-13.8-3.5-20.8-4.6c-6.4-1-12.4,0.2-15.7,7.7
			c-3.7-5.8-5.2-11.4-4.7-17.4c0.3-4.1,3.3-6.1,7.2-6c4.8,0.1,9.7,0.3,14.5,0.7c5.3,0.4,9.7-0.6,13.4-4.9c4.3-5,10.5-5.3,16.6-5.1
			C411.5,85.9,414.1,86.1,417.5,86.3z M452.3,45.1c-7.8-2.9-10.4-1.7-13.7,5.8c-3.5,8-2.7,15.3,2.2,22.6c2.4,3.5,5.2,5,8.6,4
			c1.8-0.5,3.4-3.5,4.2-5.7c1.3-3.7,3.5-5.3,7.1-4.4c3.7,0.9,5.1,3.4,3.9,7.2c-0.4,1.4-1.1,3.1-0.6,4.2c1.8,4.1,10.8,5,13.5,1.4
			c4.7-6.2,7.5-13.3,7.6-21.2c0.1-4.2-1.1-7.3-5.3-9.1c-2.4-1-4.4-3-6.3-4.8C466.3,38.3,459.4,38.2,452.3,45.1z M487.3,87.1
			c0.8,1.7,1.2,3.8,2.4,4.5c1.2,0.7,4.5,0.7,4.8,0.1c2.6-5.5,5.5-11,6.8-16.9c0.9-4.4-0.1-9.4-1-14c-0.2-1.2-2.9-2.4-4.7-2.8
			c-0.7-0.1-2.1,2.2-2.6,3.6c-1.5,4.2-2.8,8.5-3.9,12.8c-1.3,5-3,9.2-9.4,9C480.7,88.7,484.2,87.1,487.3,87.1z M422.6,77.2
			c5.8-1,7.6-3.5,7.7-8.8c0.1-6.3,0.4-12.6,1-18.8c0.2-2.2,1.3-4.3,1.9-6.4c-6-2.3-10.1-0.1-12.6,5.7
			C416.4,58.6,419.1,67.8,422.6,77.2z M428.6,87.7c17.7,3.9,35.4,7.7,53.1,11.6C465.4,89.5,447.6,85.6,428.6,87.7z"/>
		<path class="st0" d="M203,127.6c1.7,0,3.5-0.4,5.2,0.1c16.7,4.3,33.4,8.7,50.1,13.3c9.8,2.7,17.6,8.5,23.6,16.7
			c4.5,6.2,9.3,12.2,13.8,18.4c4,5.5,4.5,11.4,1.4,17.4c-2.4,4.6-4.9,9.1-7.4,13.6c-3.4,6-3.2,8.7,1.1,14
			c8.7,10.9,20.8,13.9,34,15.1c23.4,2.2,45.6-2.5,67.7-9.4c1.7-0.5,3.5-0.7,5.9-1.2c-11.6,21.8-31.2,37.7-39.2,61.4
			c-4.1-1.3-4.9,1.2-5.6,4.5c-1.4,7.2-5.7,12.6-11.1,17.3c-3.8,3.3-7.8,3.1-11.8,0.3c-5.5-3.9-7.8-9.3-8.1-15.8
			c-0.1-1.8,0-3.6-1-6.4c-1.1,1.3-2.7,2.4-3.1,3.8c-2.1,8.3-10.3,16.4-18.8,17.7c-2,0.3-4.6-0.8-6.3-2c-7.8-5.4-12.3-13.2-15.6-22.7
			c-5.7,4.2-11.1,8.2-16.4,12.1c-10.3,7.7-16.8,5.1-18.9-7.7c-0.8-4.6-0.9-9.2-1.3-13.9c-5.8,1.1-11.4,2.2-17.1,3.2
			c-1.3,0.2-2.7,0.4-4,0.3c-5.9-0.8-12.2-1.1-15-7.8c-3.1-7.3-3.6-14.5,1.4-21.3c1.2-1.7,2.4-3.4,3-6.2c-2.5,0.4-5,0.8-7.4,1.3
			c-9.6,2.2-19,3-28.3-1.5c-3.8-1.9-5.1-4.3-4.1-8.4c2.2-8.6,2.2-17.8,10-25.9c-5,0.3-8.3,0.1-11.5,0.7c-11.6,2-21.7-1.5-31.1-7.8
			c-2.7-1.8-3.1-3.9-1.5-6.7c4.6-8.2,8.4-17.2,19-20c-0.1-0.5-0.2-1-0.3-1.5c-5.2-1.5-10.4-3-15.5-4.7c-5-1.7-10.1-3.3-14.9-5.5
			c-4.4-2.1-4.6-3.9-1.5-7.7c6.4-8,13.9-14.3,24.4-16.1c1.1-0.2,2.1-0.9,3.8-1.6c-1.1-1.7-1.8-3.3-3-4.6c-3.1-3.5-6.4-6.8-9.6-10.2
			c-5.3-5.6-7.7-17.9-4.7-24.9c1.3-3.1,4.9-3.5,8.5-0.8c4.5,3.4,8.8,7.2,13.3,10.5c10.7,7.8,22.5,13.4,35.2,17.1
			c2.1,0.6,4,2.5,5.6,4.2c5,5.3,9.8,10.8,15,16.5c-8.1,5.2-17.7,8.5-23.9,17.2c8.9,7.1,19.9,8,30.1,11.2c-4,4.8-8.2,9.5-12,14.4
			c-3.3,4.3-3.1,5.9,1.9,7.8c7.3,2.9,15,5.1,23,7.7c-2.3,3.2-5,6.7-7.5,10.3c-5.8,8.2-4.2,12.5,5.5,14.9c2.9,0.7,5.9,0.9,8.9,1.4
			c2.7,0.4,5.5,0.9,8.7,1.5c-1.7,5.7-3.4,10.9-4.7,16.2c-1.9,8.1,1,11.9,9.3,11.6c5.3-0.2,10.6-1.1,15.6-2.5c3.4-0.9,5.1-0.4,7,2.4
			c3.1,4.4,6.4,8.5,9.9,12.6c4.1,4.8,9,5.8,14.2,2.4c6.3-4.2,12.2-9.1,18.8-14c1.2,1.5,2.9,3.9,5,5.9c2.4,2.3,4.8,4.9,7.7,6.1
			c7.9,3.3,11.1,0.9,13.6-4.3c1.4-2.9,4.7-4.9,6.8-7.5c1-1.2,1.9-2.9,1.9-4.4c0-1.2-1.6-3.5-2.2-3.4c-1.6,0.3-3.5,1.2-4.4,2.5
			c-2.2,3.1-3.8,6.7-5.8,9.9c-3.6,5.7-5.6,5.7-10.5,1.3c-4.9-4.3-10.2-8.1-15.3-12.1c0.4-0.7,0.8-1.5,1.3-2.2
			c-1.2,1.9-2.5,3.7-3.6,5.6c-3.3,5.8-7.8,10.3-14.1,12.8c-4.1,1.7-8.2,1.5-10.9-2c-3.4-4.4-6.5-9.1-8.9-14.1
			c-2-4.4-2.8-4.9-7.3-3.1c-5.3,2.1-10.8,3.7-16.4,5c-3.9,0.9-5.8-1.6-6.1-5.4c-0.6-6.9,1.4-12.8,6.4-17.6c1.3-1.2,2.7-2.4,3.9-4.9
			c-2,0-4,0.3-5.9-0.1c-7.5-1.3-15-2.4-22.3-4.5c-4.9-1.4-5.5-4.2-2.2-8.3c3.4-4.1,7.3-7.8,11-11.6c1.1-1.1,2.1-2.3,3.6-3.9
			c-7.2-0.6-13.3-1.1-19.5-1.6c-0.7-0.1-1.3-0.1-2-0.3c-4.4-1.4-9.5-2.5-10.1-8.2c-0.5-5.4,3.8-7.7,7.7-10c3.8-2.2,7.6-4.5,11.3-6.7
			c-0.1-0.4-0.2-0.9-0.4-1.3c-1.2-0.3-2.3-0.5-3.5-0.8c-8.5-2.1-17-4.3-25.5-6.4c-4.5-1.1-3.7-3.7-1.4-6.1c7.2-7.5,16.1-10.2,26.3-9
			c1.7,0.2,3.4,0.4,6.4,0.7c-8.6-9.4-22.2-10.1-28.1-20.6C202.5,128.7,202.8,128.2,203,127.6z"/>
		<path class="st0" d="M289.6,738.5c19.7,10.8,21.3,31.6,30.2,49.4c-12.1,0-23,0.2-34-0.2c-1.7-0.1-4-2.2-4.8-3.9
			c-3.7-7.6-6.8-15.5-10.3-23.3c-5.9-12.9-16.5-14.2-27.3-13.6c-1.1,0.1-2.9,3.6-3,5.6c-0.3,10.3-0.1,20.6-0.1,31
			c0,1.2-0.1,2.3-0.2,4c-10.5,0-21,0.2-31.4-0.2c-1.3,0-3.3-3.1-3.4-4.9c-0.5-4.6-0.2-9.3-0.2-14c0-38.2,0.1-76.3-0.1-114.5
			c0-4.6,1-6.4,6-6.4c18.8,0,37.6-0.4,56.5-0.5c26.4-0.1,38.2,10,42.3,36.3c1.7,10.8,1.8,21.6-1,32.2
			C306.1,726,299.9,733.6,289.6,738.5z M240.3,674c0,14.6-0.1,28.8,0.2,42.9c0,1.4,2.4,3.7,3.9,3.9c5.6,0.7,11.3,1.1,16.9,0.9
			c11.1-0.4,16.6-5,17.2-15.3c0.5-7.9,0-16-0.6-23.9c-0.4-5-3.8-8.2-9-8.3C259.6,673.7,250.3,674,240.3,674z"/>
		<path class="st0" d="M647.1,648.1c12.6,0,24.2,0,36.2,0c0,46.4,0,92.6,0,139.2c-11.6,0-23.3,0-35.5,0c0-18.9,0-37.7,0-56.8
			c-12.5,0-24.5,0-37.1,0c0,18.8,0,37.5,0,56.5c-12.1,0-23.7,0-35.6,0c0-46.2,0-92.3,0-138.7c11.6,0,23.1,0,35.1,0
			c0,18.5,0,36.7,0,55.3c12.3,0,24.3,0,36.8,0C647.1,685.3,647.1,667,647.1,648.1z"/>
		<path class="st0" d="M329.3,648.2c11.4,0,22.5,0,34,0c0,1.9,0,3.5,0,5.1c0.1,26,0.2,52,0.5,78c0.1,5.6,1,11.3,2.2,16.7
			c1.3,5.9,5.8,9.3,11.4,10.8c8,2.2,16,2.5,24.2,0.5c9.3-2.4,13.8-7,14.4-16.6c0.7-12.6,1.1-25.3,1.2-37.9
			c0.2-17.2-0.1-34.3-0.2-51.5c0-1.6,0-3.2,0-5.4c11.2,0,22,0,32.8,0c3.5,0,2.8,2.6,2.8,4.6c0,14.2,0.1,28.3,0,42.5
			c-0.1,13.7,0.2,27.3-0.5,41c-1.6,28.5-15.6,45-43.5,51.2c-16.1,3.6-32.2,2.7-47.6-3.4c-20.1-7.8-30.9-23.1-31.5-44.4
			c-0.9-29.8-0.6-59.6-0.7-89.5C328.8,649.5,329,649.1,329.3,648.2z"/>
		<path class="st0" d="M562.9,757.6c0,8.9,0.1,17.2-0.1,25.5c0,0.9-1.3,2.5-2.1,2.6c-17.6,2.4-35.2,5.4-53,1.4
			c-25-5.6-39.1-21.6-41.6-46.9c-1.8-18.3-2.5-36.6,1.8-54.6c5.2-22,22.7-36.1,46.1-38.4c14.5-1.4,28.9-0.4,43.2,2.1
			c4,0.7,6,2.1,5.7,6.7c-0.5,7.1-0.1,14.3-0.1,21.7c-1.6,0-2.9,0.2-4.1,0c-14.4-2.3-28.8-2.4-43.3-0.6c-7.5,0.9-12.2,5.3-13.3,12.6
			c-2.8,17.7-2.5,35.5-1,53.3c0.9,10.6,8.6,16.9,21.5,17.1c10.9,0.2,21.8-1,32.8-1.6C557.6,758.2,559.9,757.9,562.9,757.6z"/>
		<path class="st0" d="M354.1,305.4c-0.9,9.5-1.9,19-2.6,28.5c-0.5,6.5-0.7,13-0.6,19.4c0.1,5.8-0.6,6.8-6.5,7.2
			c-8.2,0.6-16.4,1.4-25.6,2.2c1.5-2.6,3.2-5.4,5.1-8.6c-5-0.1-7.7,2.8-10.1,6.1c-7.6,10.7-16.2,20.5-28.4,26
			c-10.4,4.7-21.3,8.5-31.9,12.6c-4.6,1.8-7.2-0.9-9.8-4.7c2.4-2.1,4.9-4.2,7.2-6.5c3.3-3.3,6.3-6.9,9.6-10.2
			c3.7-3.7,7.6-7.3,11.5-10.8c6.3-5.6,13.2-10.7,19-16.9c8.9-9.4,17.1-19.4,25.6-29.2c1.2-1.4,2.2-3.1,2.6-4.8
			c0.4-1.5-0.1-3.2-0.3-4.9c-1.4,0.8-3.2,1.4-4.1,2.6c-5.6,7.5-10.5,15.7-16.7,22.7c-11,12.2-22.4,24.1-37.5,31.7
			c-3.7,1.8-6.9,4.6-9.9,7.5c-8.3,7.9-18.4,11.1-29.3,12.4c-7.1,0.9-14.3,1.3-21.4,2c-7.5,0.7-14.6-0.5-21.5-5.3
			c3.4-1.8,6.2-3.9,9.4-4.9c6.8-2.2,11.7-6.7,16.2-11.9c2.5-2.9,5.7-5.9,9.1-7.3c24.2-9.8,46.1-23,63.3-43.1c1.7-2,3.6-3.9,5.6-5.7
			c3.5-3.1,7.2-2.5,8.4,2c1.2,4.6,3.4,4.3,6.5,2.4c5-3,10-6,14.7-9.4c3.2-2.3,5.3-2.3,8.8,0c5.8,3.8,12.1,6.7,18.5,9.4
			c1.4,0.6,4.3-0.8,5.8-2.1c3-2.7,5.5-6,8.2-9C353.3,305,353.7,305.2,354.1,305.4z"/>
		<path class="st0" d="M558.1,354.8c2,3.4,3.5,6,5.3,8.9c-0.9,0.1-1.5,0.2-2,0.2c-7.5-1-15-2.4-22.6-3.1c-7.7-0.7-7.6-0.9-8-8.5
			c-0.7-15.6-2.1-31.2-3.3-48.4c3,3.1,5.9,5.2,7.6,8c2.7,4.5,6.3,5.6,10.5,3.7c5.3-2.5,10.7-5.4,15.3-9c3.2-2.5,5.1-2.7,8.2-0.4
			c6.2,4.8,12.1,10,20.6,11.1c0.3-1,0.5-1.9,0.7-2.8c1.9-6.1,5-6.9,9.6-2.4c9,8.6,17.6,17.8,27.1,25.7c11.6,9.6,25.3,15.8,39.3,21.3
			c5.3,2.1,9.1,5.4,12.8,9.8c3.5,4.1,8.5,7.1,13.2,10.1c3.1,2,6.8,3.3,10.2,4.9c0,0.6,0.1,1.2,0.1,1.8c-4.6,1.4-9.3,4.2-13.8,4
			c-12.4-0.5-24.9-1.8-37.2-3.7c-8.8-1.4-16.6-5.7-22.8-12.4c-1.5-1.6-3.1-3.1-5-4c-19.7-9.4-33.7-25.3-47.4-41.4
			c-3.6-4.2-6-9.5-9.2-14c-1-1.4-3.1-2-4.8-2.9c0,1.7-0.7,3.9,0,5.1c2.8,4.7,5.6,9.5,9.3,13.5c9.9,10.7,19.7,21.9,30.8,31.3
			c8.4,7.1,16.4,14.5,24.1,22.3c3.7,3.8,7.2,7.8,10.8,11.9c-2.9,4.1-6.9,5.1-12.4,2.5c-8.4-3.9-17.1-7.2-25.8-10.5
			c-12.6-4.8-22.2-13.1-29.5-24.3C567.1,359,564.3,355.3,558.1,354.8z"/>
		<path class="st0" d="M569.3,416.3c-1.2,1.1-2.1,1.6-2.3,2.2c-2.3,7.6-8.9,6.6-14.6,7.3c-3.6,0.5-4-2-3.3-4.4
			c1.2-4.1,2.9-8.1,4.4-12.1c0.5-1.2,1-2.4,1.5-3.6c-0.4-0.4-0.7-0.8-1.1-1.2c-1.2,1-3,1.7-3.4,2.9c-2.1,6.8-4.3,13.6-5.7,20.5
			c-1.3,6.6-10.7,14.1-17.4,13c-3.4-0.6-6.4-5.2-5-9.5c1.8-5.3,4.6-10.2,7.1-15.2c1.6-3.2,3.8-6.3,0.5-11c-3.4,7.2-6,13.9-9.6,20.2
			c-1.8,3.1-4.8,6-7.9,7.5c-4.2,2.1-6.6,0.1-6.7-4.7c0-2.8,0.5-5.7,0.3-8.5c-0.1-2.2-0.7-4.3-1.1-6.5c-0.6,0-1.1-0.1-1.7-0.1
			c-0.5,1.9-1.5,3.9-1.3,5.7c0.3,4.1,0.9,8.3,2,12.3c1.5,5.6,0.1,10.2-3.6,14.3c-5.4,5.9-11.4,11.1-20.6,14.3
			c1.8-6.5,2.6-12.4,5.1-17.5c9.1-18.3,18.7-36.3,28.5-54.3c3.1-5.8,8.5-9.1,15.2-10.3c3.4-0.6,6.7-1.8,10-2.9
			c10.2-3.4,20.1-1.9,29.5,2.5c2.4,1.1,4.5,3.4,6.1,5.7c3.2,4.3,5.2,9.4,10.7,11.9c1.8,0.8,3.1,4,3.5,6.3
			c1.8,11.2,1.2,22.2-4.8,32.4c-2.8,4.8-2.8,9.5-1,14.8c1.1,3.2,1.5,7.3,0.5,10.4c-3.5,10.9-10,19.8-19.5,26.4
			c-4,2.8-7.8,6.1-13,10.2c-0.7-4.3-2-7.4-1.6-10.4c1.3-9.3,6.3-16.2,14.8-20.6c2.5-1.3,4.8-3.1,7.4-4.8c-3.1-3.9-5.4-2.1-7.8-0.5
			c-7.4,5-7.4,5-12,4.4c-1.6-6.7-0.6-8.9,5-12.3c4.4-2.7,8.6-5.6,12.8-8.6c3.5-2.5,3.9-6.1,2.7-10.7c-0.8,1-2,1.9-2.4,3.1
			c-2.9,8.1-9.5,11.7-17.1,13.8c-4.6,1.3-6.8-0.9-6.8-5.7c0.1-7.6,1.8-9.8,9.1-11.9c6.7-2,13.2-4.1,14.5-12.4
			C569.7,418.3,569.5,417.8,569.3,416.3z"/>
		<path class="st0" d="M307.6,443.2c2.4,3.6,4.8,7.1,7.2,10.7c3.6,5.5,6.3,11.4,6,18.2c-0.3,6.8-3.3,10.4-10.4,12.5
			c-0.2-2.8-0.1-5.7-0.8-8.2c-0.9-3.1-1.9-6.7-4.1-8.7c-15.2-14.4-18.3-31.8-13.1-51.2c1.1-4,3.7-7.5,5.4-11.4
			c1.1-2.5,2.3-5.2,2.5-7.9c0.6-9.6,5.4-16.1,13.9-20.3c15.2-7.6,29.8-7.9,45.2,0.8c8.5,4.8,14.7,11.1,19.8,19
			c10.7,16.5,20.8,33.3,23.6,53.3c0.2,1.6,0.4,3.3,0.6,5c-14.1-3.7-27.9-22.3-27.5-36.3c0.1-4,0.9-6.8,5.5-7.1
			c0.7,0,1.3-0.6,1.8-0.8c-4.9-2.7-9.7-5.3-14.8-8.1c0.3,1,0.9,2.2,1.1,3.5c0.7,5.2,1.7,10.4,1.6,15.6c-0.1,4.8-2.7,6.1-7.2,4.2
			c-6.2-2.7-10.7-7.1-12.6-13.9c-1.2-4.2-2.7-8.4-7.8-10.3c1.8,5.2,3.7,9.7,4.9,14.4c0.7,2.7,0.6,5.6,0.5,8.4
			c-0.3,4.5-2.3,5.8-5.7,3.1c-5.5-4.4-10.4-9.6-15.4-14.6c-1.3-1.3-2.2-2.9-3.9-4c3.2,9.2,7,18.1-0.4,28.1c-5-5.8-9.6-11-14.2-16.3
			c-0.4,0.2-0.8,0.5-1.2,0.7c3.7,7.7,7.3,15.3,11,23c-0.5,0.3-0.9,0.6-1.4,1c-3-1-6-2-9.1-3C308.1,442.7,307.8,443,307.6,443.2z"/>
		<path class="st0" d="M641.3,863.9c0.6-1.7,0.8-2.7,1.3-3.5c6.8-11,5.5-21.8,0-33c-3.9-7.8-6.5-16.2-10.3-25.8
			c-3.4,12.7-6.4,23.9-9.3,35.1c-2,7.5-4.1,15.1-5.9,22.6c-0.8,3.3-2.4,4.7-5.9,4.6c-17-0.5-13.1,2.7-17.2-12.9
			c-1.1-4.3-2.3-8.5-4.6-12.9c-1.5,5.8-3,11.5-4.3,17.3c-1.9,8.5-1.9,8.5-10.2,8.5c-2,0-4.2,0.5-5.9-0.1c-2.1-0.8-4.9-2.2-5.4-4
			c-5.3-18.8-10.3-37.8-15.3-56.7c-0.1-0.4,0.2-0.9,0.3-1.4c0.2-0.1,0.4-0.2,0.5-0.2c16.2-1.5,16.2-1.5,20,14.2
			c1.6,6.7,3.5,13.4,6.3,20.1c1.6-7,3.2-14.1,4.8-21.1c0.4-1.9,0.8-3.9,1.2-5.9c1.7-8,1.7-7.9,9.6-7.8c4.2,0,6.5,1.8,7.3,5.9
			c2.2,10.2,4.6,20.4,7.7,30.6c2.4-9.9,5-19.8,7-29.8c1-5,3-7,8.3-6.7c8,0.5,16,0.3,24,0.1c3.4-0.1,5.1,1.1,6,4.4
			c1.8,6.2,4.1,12.2,7.4,18.5c1.8-5.5,3.9-11,5.4-16.6c1.3-4.9,3.7-7.1,8.8-6.4c3.3,0.4,6.6,0.1,10.8,0.1c-2.1,5.6-3.9,10.8-6,16
			c-5.5,13.9-11.2,27.7-16.6,41.6c-1.5,3.9-3.7,5.6-7.8,5.2C649.4,863.7,645.6,863.9,641.3,863.9z"/>
		<path class="st0" d="M3.2,176.1c8.8,3.7,16.2,6.9,23.7,9.9c18.9,7.3,37.5,15.2,56.8,21.2c14,4.4,28.8,6.6,43.4,8.7
			c8.6,1.2,17.6,0.3,26.4,0.2c1.3,0,3-0.8,3.9-1.8c2.1-2.4,4.7-2.7,6.5-0.8c1.3,1.3,2,4.1,1.6,6.1c-0.8,4.9-2.1,9.7-3.7,14.4
			c-1.6,4.6-1.3,8,3.8,9.8c0.9,0.3,1.8,0.8,2.3,1.7c-13.3,4.6-26.2,7.1-39.6,6c-12.4-1-24.7-2.6-37.1-3.9c-0.5-0.1-1.1,0-1.5-0.3
			c-16-8.7-34.5-13.6-45.2-30.5c-2.3-3.6-6.7-5.8-10.4-8.3c-6.1-4.3-12.6-8.1-18.7-12.5C9,191.6,5.6,185.1,3.2,176.1z"/>
		<path class="st0" d="M30.2,236.9c2.3,0.3,4.8,0.4,7,1c14.9,4.1,29.6,8.7,44.6,12.3c5.9,1.4,12.2,0.6,18.3,1.2
			c6.3,0.7,12.5,2,18.7,2.8c15.9,2.1,31.6,1.1,46.8-4c10.3-3.4,20-0.2,30.4,0.4c-0.7,8.8,0.1,17,6,23.8c-7.5,6.8-16.4,10-25.6,12.5
			c-46.2,12.4-86.4-1-123.2-29c-5.7-4.3-11.4-8.6-17-13c-2.4-1.9-4.6-4.2-6.9-6.3C29.7,238,30,237.4,30.2,236.9z"/>
		<path class="st0" d="M878.1,177.1c-1.4,6.5-3.9,11.7-8.7,15.4c-7.3,5.5-14.9,10.6-22.1,16.2c-4.4,3.5-8.8,7.2-12.4,11.4
			c-11.4,13.3-27.3,19.3-42.2,26.9c-2.7,1.4-6.6,0-9.8,0.6c-13.1,2.2-26.2,4.3-39.6,3.7c-9.9-0.5-19.5-1.6-28.7-5.3
			c0-0.6,0-1.1,0.1-1.1c7.2-2.6,6.6-7.6,4.6-13.5c-1.4-4.1-2.5-8.3-3.1-12.5c-0.2-1.8,0.9-4.4,2.2-5.7c2-1.9,3.9-0.6,5.9,1.2
			c1.5,1.4,4.2,1.6,6.4,1.9c15.6,2,30.6-2,45.9-4.3c32.8-5.1,62.2-19.8,92.4-32.1c2.2-0.9,4.3-1.7,6.5-2.5
			C876.2,177.1,876.9,177.2,878.1,177.1z"/>
		<path class="st0" d="M679.1,275.5c5.6-8.1,7.8-15.9,6-24.9c11.1-0.6,21.3-3.7,32.4-0.1c18.8,6.2,38.3,5.6,57.8,1.9
			c7.9-1.5,16.4-0.3,24.2-2.2c15.2-3.5,30.1-8.3,45.1-12.5c1.9-0.5,4-0.6,7.6-1.1c-2,2.8-2.8,4.8-4.3,5.9
			c-15.1,10.8-29.4,23.4-45.8,31.9c-32.7,16.9-67.5,22.3-103.4,10.3C691.9,282.6,685.8,278.8,679.1,275.5z"/>
		<path class="st0" d="M804.2,298.7c-6.3,3.9-12.3,8.5-19,11.5c-13.6,6.1-27.6,11.4-41.6,16.9c-12.6,4.9-25.3,5.8-38.6,2.1
			c-14.7-4.2-29.9-7-42.9-15.4c-5.5-3.5-10.3-8.4-15.1-12.8c-4-3.7-4-8.1-1.7-12.8c1-2.1,1.9-4.3,3-6.8c6.4,2.8,12.5,0.3,18.7-1.5
			c4.3-1.2,7.7-0.1,11.7,1.9c6.1,3,13.1,4.3,19.7,6.2c3,0.9,6.3,1,9.1,2.3c11.1,4.9,23,5.5,34.7,5.4c8.9,0,17.7,0.1,26.6,1.1
			c9.8,1.1,19.9,0.3,29.9,0.3c1.6,0,3.2,0,4.8,0C803.7,297.6,804,298.2,804.2,298.7z"/>
		<path class="st0" d="M77,297.4c6.2,0,11.2,0.2,16.1,0c9.8-0.5,19.5-1.3,29.2-2.1c1.7-0.1,3.4-0.9,4.9-0.5
			c10.7,2.3,21.3,1.1,31.7-0.7c9.1-1.6,18-4.5,27-6.5c7-1.6,14-2.6,19.8-7.4c1.5-1.2,4.7-0.7,7.1-0.4c5.9,0.6,11.8,1.5,17.7,2.5
			c1.5,0.3,3.5,1.3,4,2.5c5.1,12,6.9,8.8-2.5,18.7c-5.5,5.9-12.6,11.3-20.1,14.2c-14,5.5-28.6,9.5-43.2,13.2c-11.8,3-23-1.1-34-5.1
			c-11.1-4.1-22-8.6-33-12.8C93,309.4,84.9,304.8,77,297.4z"/>
		<path class="st0" d="M122.9,144.8c-3.7,4-6.7,7.3-9.8,10.5c-3,3.2-2.8,5.8,1.3,7.7c7.1,3.3,14.2,6.6,21.2,9.8c1,0.5,2.1,1,3.3,1.5
			c-1.9,3.9-4.7,6.2-8.7,5.5c-8.6-1.5-17.5-2.5-25.6-5.5c-15.9-5.8-31.4-12.8-47-19.5c-9.2-3.9-15.5-10.7-20.6-19.5
			c-3-5.3-8-9.8-13-13.4c-10.3-7.4-16-17.1-17.4-29.5c-0.6-5.2,1-9.4,5.7-12.7C44.5,109,81.6,129.5,122.9,144.8z"/>
		<path class="st0" d="M756.3,342.1c-4.1,5.2-8.6,9.2-14.7,11c-13.1,3.8-26.2,7.4-39.3,10.9c-8.4,2.3-16.7,0.9-24.3-2.8
			c-15.4-7.6-30.7-15.3-45.5-23.9c-6.3-3.7-11.1-9.8-16.5-14.9c-3.8-3.4-7.7-6.7-11.3-10.3c-1.9-2-4.9-5.2-4.3-6.9
			c1.2-3.7,4.2-6.9,6.8-10.1c0.3-0.4,2.5,0.3,3.6,0.9c9.2,4.9,18.4,9.3,29.3,8.2c1.4-0.2,3.2,0.9,4.4,1.9
			c21.1,17.9,46.3,25.7,72.9,29.9C730.1,338.1,742.9,340,756.3,342.1z"/>
		<path class="st0" d="M274,294.3c0.9,1,1.6,1.8,2.2,2.5c7.6,9.2,7.6,9.2-1.5,16.9c-2.4,2-4.8,4.2-6.7,6.7
			c-8.9,11.8-20.9,19.2-33.9,25.4c-9.4,4.5-18.6,9.6-27.9,14.3c-10.6,5.4-21.5,6-32.9,2.5c-10-3.1-20.1-5.7-30.2-8.5
			c-7.1-2-12.5-6.2-18.1-11.6c1.4-0.8,2.2-1.6,3-1.7c12-1.6,24-2.9,35.9-4.7c17.8-2.8,35.3-6.8,51.2-15.5
			c7.4-4.1,14.1-9.4,21.2-13.9c2-1.2,4.6-2.6,6.7-2.2c6.9,1.3,12.8-0.7,18.7-3.7C265.7,298.8,269.6,296.6,274,294.3z"/>
		<path class="st0" d="M140.1,134.5c-6.8,4.9-12.7,5.3-19.9,2.6c-34.7-13.2-66-32.1-94.7-55.6C15.9,73.6,10.4,63,5.5,52.1
			C4.6,50.2,5.3,47.2,6,45c1.3-4.1,4.3-4.9,7.8-2.5c4.8,3.3,9.5,6.7,14.3,10.1C50.5,68.4,73.4,83.6,98,96c6,3,12.7,4.8,19.1,7.1
			c5.2,1.8,9.2,4.8,10.1,10.6C128.6,122.2,132.1,129.5,140.1,134.5z"/>
		<path class="st0" d="M737.3,210.6c6.8-3.8,13.6-7.5,20.9-11.6c-1.8-2.4-3.4-4.4-5-6.4c-3.8-4.9-3.3-6.5,2.7-8.1
			c4.8-1.3,9.8-2.1,14.6-3.4c18.5-5.1,36-12.6,53-21.5c5.9-3,11.9-6,18.2-7.9c10-3.2,19-7.9,27.2-14.3c2.1-1.6,4.4-3.1,6.7-4.3
			c2.6-1.4,4.7-0.2,4.4,2.5c-0.4,3.9-0.9,8-2.7,11.4c-4.3,8-10.9,13.9-19.1,17.7c-11.8,5.5-21.9,13.3-30.4,23
			c-5.6,6.4-12.8,9.3-20.6,12.3c-16.8,6.4-34.5,8.4-51.9,11.7c-5.7,1.1-11.8,0.2-17.7,0.2C737.6,211.3,737.4,210.9,737.3,210.6z"/>
		<path class="st0" d="M741.3,133.7c1.7-1,3.2-1.8,4.5-2.8c4.2-3.2,6.6-7.4,7.3-12.6c1.1-8.9,6.1-14,14.9-16.5
			c21.1-5.8,39.4-17.4,57.2-29.6c3.8-2.6,7.5-5.5,11.4-8c1.7-1.1,4.5-2.7,5.5-2c2.1,1.5,4.1,4,4.7,6.4c0.5,2.1-0.5,4.9-1.5,7.1
			c-7.4,17.3-20.3,29.8-36,39.7c-15.9,10-32.2,19.2-51,23C752.5,139.7,747.2,138.9,741.3,133.7z"/>
		<path class="st0" d="M330.1,489.1c-3.2-11.8-6.5-23.6-9.3-35.5c-0.4-1.5,2-3.6,3.6-6.2c3.7,5.6,6.4,9.8,9.2,14
			c0.4-0.2,0.8-0.4,1.3-0.6c-1.5-5.4-3.7-10.7-4.2-16.1c-0.5-5.6,0.7-11.4,1.3-18.7c7.5,5.4,15.2,6.6,18.3,15.8
			c2.5,7.4,8.1,14,12.9,20.4c4.6,6.1,10.1,11.5,15,17.3c5,5.9,4.2,19.9-1.8,25.5c-4.6-11.8-15.3-17.4-24.2-25
			c-5.4-4.6-9.8-10.3-14.7-15.5c-0.3-0.1-0.7-0.3-1-0.4c0,0.4-0.1,0.8-0.1,1.2c2.3,8.7,9.6,13.2,15.6,18.7c2.9,2.7,6.5,4.6,9.6,7.1
			c4.7,3.9,8,8.3,5.5,15c-1,2.6-1.3,5.4-2.1,8.5c-10.1-11.2-22-19.2-34.9-25.9L330.1,489.1z"/>
		<path class="st0" d="M329.9,489c0.2,0.6,0.2,1.5,0.6,1.9c4.1,4,2.2,7-1.1,10.5c-6.4,7-12.3,14.3-18.3,21.5
			c-0.6,0.7-0.9,1.7-1.7,3.1c9.9,6.7,19.7,13.3,29.4,19.9c1.4,0.9,2.8,1.8,4.2,2.7c7.1,5,7.6,10.5,1.2,17.3
			c-1.3-7.4-5.3-12.3-12.6-13.7c-2.7-0.5-5.2-1-7.1,2.5c-2.3,4.1-8.7,3.9-13.2,0.1c-4.3-3.6-4.6-7-1.3-11.2c0.7-0.9,0.7-3.7,0-4.4
			c-4.4-3.7-9.1-7.3-13.9-10.5c-3.6-2.3-6.9-0.5-10.1,1.6c-2.2,1.4-6,3.8-7.1,3c-2.5-1.9-3.7-5.4-5.5-8.2c0.4-0.4,0.8-0.7,1.1-1.1
			c-3.1-0.1-6.3-0.2-9.4-0.4c-7.7-0.5-9.4-2.7-7.6-11.3c4.8,1.8,9.5,3.6,14.3,5.4c0.2-0.5,0.4-0.9,0.6-1.4
			c-3.4-4.1-8.1-6.3-13.2-7.7c-8-2.3-8.1-2.3-6.3-12c5.9,2.6,11.6,4.9,17.1,7.8c4.6,2.4,8.7,5.5,13.1,8.1c3.8,2.2,7.5,2.1,11-1.1
			c4.4-4,8.7-7.6,10.9-13.7c3.4-9.2,14.7-12.6,25.1-8.8C330.1,489.1,329.9,489,329.9,489z"/>
		<path class="st0" d="M592.4,520.9c4.7,0.6,9.4,1.2,14.2,1.8c-0.1,5.4-2.2,7.9-7.4,8.2c-6.5,0.3-13,0.1-19.5,0.2
			c-5.7,0.2-11.4,1.1-15.4,5.7c-0.8,0.9-1.4,3-0.9,4.1c3.4,7.9,0,14.6-8.6,15.9c-4.1,0.6-8.1,0.5-11.1-3.7
			c-3.1-4.4-10.1-3.2-13.8,2.3c-1.7,2.5-2.4,5.7-3.5,8.6c-6-2.3-6.8-5.6-2.4-10.5c7-7.6,14.5-14,24.8-17.6
			c8.1-2.8,15.2-8.7,22.7-13.4c2.7-1.7,2.6-3.7,0.5-6.2c-4.3-5.2-8.4-10.7-12.5-16.1c-0.3-0.4-0.7-1.2-0.5-1.3
			c3.4-4,6.4-8.8,10.5-11.8c3.5-2.6,5.7,1.4,7.5,4.3c3.3,5.5,6.7,11.1,10.1,16.6c2,3.3,5.3,4.4,8.7,3c7.8-3.1,15.5-6.6,23.1-10.2
			c6.7-3.2,13.2-6.6,20.2-9.4c-0.6,7-2.2,12.4-9.8,14.3c-6.5,1.7-12.7,4.8-19.7,7.5c5.3,4,8.9-1.3,14.6-0.6
			c-1.5,2.6-2.2,5.4-3.9,6.3c-2.7,1.3-5.8,4.3-9.2,0.2c-2.3-2.9-14.3-2.5-18.3,0C592.5,519.7,592.5,520.3,592.4,520.9z"/>
		<path class="st0" d="M362.9,840.8c4.1,7.8,7.8,15,12.1,23.2c-5.5,0-9.7,0.4-13.7-0.2c-1.9-0.3-3.9-2-5.2-3.7
			c-1.4-1.8-1.9-4.2-2.9-6.3c-3.3-7.2-5.7-8.5-14.2-7.6c0,4.5-0.1,9.1,0,13.7c0.1,3-1.1,4.1-4.1,4.1c-13.2-0.3-11.8,2-11.9-11.5
			c-0.1-15.1,0.1-30.3-0.1-45.4c-0.1-4.5,1.4-6.2,6-6c7.8,0.3,15.7-0.2,23.5,0.1c10.3,0.3,15.9,4.9,17.2,15.1
			C370.7,825.4,371.5,835,362.9,840.8z M339.2,833.7c5.5-0.3,11.2,2.7,15-2.9c3.2-4.7,3.1-9.9,0.3-14.6c-3.8-6.4-9.9-2.7-15.3-3
			C339.2,820,339.2,826.4,339.2,833.7z"/>
		<path class="st0" d="M320.2,863.9c-5.1,0-9.8,0.4-14.3-0.2c-1.7-0.2-3.8-2.6-4.5-4.4c-1.4-4-3.7-5.5-7.9-5.3
			c-3.5,0.2-7,0.1-10.5,0c-3.6-0.2-5.8,1.2-6.2,4.9c-0.4,3.8-2.3,5.4-6.3,5.1c-4-0.4-8-0.1-12.6-0.1c0.4-1.7,0.6-2.9,1-4
			c6.4-18,13-35.9,19.3-53.9c1.3-3.7,3.4-5,7.3-5c14.3,0.1,11.9-0.2,16.2,11.3c5.7,15.3,11.1,30.6,16.6,45.9
			C318.9,859.9,319.4,861.6,320.2,863.9z M281.5,841.8c5.2,0,9.8,0,15,0c-2.4-7.9-4.7-15.4-6.9-22.8c-0.4,0-0.8,0.1-1.3,0.1
			C286,826.5,283.8,833.9,281.5,841.8z"/>
		<path class="st0" d="M393.1,489.7C381,475.8,369,462.9,358,449.2c-7-8.7-7.1-14.4-3.7-24.4c4.5,1.9,8.9,4.2,13.5,5.7
			c4.2,1.3,7.3,3.4,9.9,6.9c3.7,5.1,7.9,9.8,12,14.7C398.1,462.1,399.8,477.1,393.1,489.7z"/>
		<path class="st0" d="M530,445.2c-2.1,9-7.9,14.5-13.9,19.7c-1.9,1.6-3.8,3.2-5.9,4.7c-10.9,7.6-18.1,17.7-21,31
			c-5.8-9.2-6-18.9-2-28.4c2-4.8,5.6-9,8.6-13.3c4-5.7,8-11.4,12.4-16.8c1.8-2.2,4.7-4.3,7.4-4.8c3.4-0.6,5,2.2,5.5,5.7
			c0.1,0.8,1.7,1.9,2.8,2.1C525.7,445.5,527.6,445.2,530,445.2z"/>
		<path class="st0" d="M499.9,511.9c-1.4-3.6-2.9-5.9-3.1-8.4c-0.7-10,2.9-18.4,11-24.3c11.9-8.6,20.8-19.9,30.2-30.9
			c1-1.2,1.2-3.1,1.7-4.5c5.6,3.9,7.4,14.5,3.5,23c-3.9,8.4-10.3,14.4-18.3,18.5c-9,4.6-15.1,11.7-20.2,20
			C503.6,507.1,502.2,508.7,499.9,511.9z"/>
		<path class="st0" d="M642.7,514.2c-5.9,0-5.4,4.4-6.3,7.6c-4.6,0.8-7-1.2-7-5.5c0.1-3.8,1.6-7.7,5.9-8c3.4-0.2,6.8,1.2,11.3,2.1
			c-1-2.4-1.5-4.1-2.3-5.6c-2.1-3.8-1.3-7.1,1.5-10c4.8-4.9,10.6-6.6,17.3-5c0.5,0.1,1.2,0.1,1.4,0.4c4.4,5.9,9,11.7,12.9,18
			c0.8,1.3-0.9,4.2-1.5,6.4c-2.1-0.6-4.4-0.9-6.3-1.9c-2.4-1.4-4.5-3.4-6.8-5c-3.4-2.4-6.4-1.4-8.7,1.6c-2.5,3.3-0.5,5.4,2.3,7.3
			c4.4,3,6.9,7.3,6.5,12.7c-0.2,2.1-1.8,4-3.5,6c-3.5-9.1-10.3-13.3-19.1-15.3C641.1,518,641.8,516.3,642.7,514.2z"/>
		<path class="st0" d="M222,536.3c-4-3.2-3.7-6.7-1-10.4c3.4-4.5,6.8-8.6,7.5-14.8c0.5-4.5,5.7-5.1,9.8-4.7
			c9.7,1,17.7,9.8,11.9,18.8c-0.2,0.3,0,0.9,0,1.7c3.8,0,7.9-0.9,11.3,0.2c4.2,1.4,8.3,3.9,11.8,6.7c3,2.5,2.8,6.4,0.8,9.5
			c-0.8,1.3-2.9,2.3-4.4,2.4c-1.1,0-2.9-1.5-3.4-2.8c-2.9-7-8-10.2-15.5-10.4c-1.7-0.1-3.8-1.5-4.8-3c-3.6-5.5-7.1-6.6-12.5-2.9
			C229.5,529.5,225.9,533,222,536.3z"/>
		<path class="st0" d="M544.4,478.7c0.3,4.6,1,9.3,0.5,13.8c-0.3,2.4-2.3,5.1-4.3,6.7c-7.4,5.9-15.1,11.4-22.6,17.2
			c-1.3,1-2.2,2.5-3.4,3.6c-1.2,1.1-2.6,2-3.9,3c-1.1-1.7-2.9-3.4-3.1-5.2c-0.6-7.2,1.6-13.8,7-18.4c9.1-7.6,18.8-14.6,28.3-21.8
			C543.5,477.9,544,478.3,544.4,478.7z"/>
		<path class="st0" d="M208.2,506.2c-1.2-7.7,1.3-10.6,8.1-12.4c6.6-1.8,13.1-4.4,19.3-7.4c5.4-2.6,7.9-2,9.7,3.7
			c0.2,0.8,0.4,1.6,0.6,2.4c2.6,10.5,0.9,12.5-9.7,10.5c-1-0.2-2-2.1-2.5-3.5c-0.8-2.6-0.4-5.9-4.3-6.3c-0.3,0.2-0.7,0.4-0.7,0.6
			c0.4,6.5-2.9,8.9-9.1,9.1C215.9,503.1,212.3,505,208.2,506.2z"/>
		<path class="st0" d="M634.4,547.1c-1.3-6-5.7-7.6-10.9-8.6c-2.1-0.4-4-1.8-6-2.7c1.5-1.8,2.9-3.8,4.6-5.5c0.8-0.9,2-1.4,3.4-2.3
			c-4.4-0.9-7.2-0.3-9.3,3.1c-1.4,2.3-1.6,5.3-2.3,8c0.5,0.5,1,1,1.6,1.4c-1.7,0.3-4.6,1.5-5,0.9c-1.5-2-3-4.6-2.9-6.9
			c0.5-7,13.6-14.8,18.9-10.5c5.8,4.6,12.5,9.8,12.9,18.4c0.1,1.8-2.2,3.7-3.3,5.5C635.5,547.7,635,547.4,634.4,547.1z"/>
		<path class="st0" d="M258.8,541c-3.4,4.1-6.7,8-10.1,12.1c-4.3-7.1-3.6-12,1.8-15.3C254.2,535.7,256.4,536.6,258.8,541z"/>
		<path class="st0" d="M462.8,65.6c-3.2-2.7-5.4-4.6-7.7-6.5c2-1.6,3.8-4.3,6-4.5c3.3-0.4,6.2,1.8,5.8,5.7
			C466.8,61.8,464.8,63.1,462.8,65.6z"/>
		<path class="st0" d="M464,43.2c2.3,2.1,4,3.6,5.6,5.1c-1.3,0.9-2.9,2.8-4,2.5c-2.4-0.6-4.6-2.3-6.9-3.6
			C460.3,46.2,461.7,45.1,464,43.2z"/>
	</g>
</g>
</svg>
